# xmcd
#
# Track frame offsets:
#	150
#	7123
#	17297
#	28516
#	37947
#	51777
#	59370
#	68678
#	75418
#	86032
#	96147
#	106076
#	118151
#	125892
#	137967
#	146937
#	158083
#
# Disc length: 2254 seconds
#
# Revision: 0
# Processed by: cddbd v1.5.2PL0 Copyright (c) Steve Scherf et al.
# Submitted via: EasyCDDAExtractor 11.5.0.1
#
DISCID=e008cc11
DTITLE=Jack Wheeler - Pullman City Mainstreet Songs
DYEAR=1900
DGENRE=
TTITLE0=All right baby
TTITLE1=Lucky Lucke
TTITLE2=I walk the line
TTITLE3=Tulsa time
TTITLE4=Me and Bobby McGee
TTITLE5=Understand your man
TTITLE6=Folsom prison blues
TTITLE7=Love me tonight
TTITLE8=Shoppin around
TTITLE9=It must be love
TTITLE10=Ring of fire
TTITLE11=It's a long lonely highway
TTITLE12=Mercedes Benz
TTITLE13=Suspicious minds
TTITLE14=Rawhide
TTITLE15=Sweet home Alabama
TTITLE16=Bonus
EXTD=
EXTT0=
EXTT1=
EXTT2=
EXTT3=
EXTT4=
EXTT5=
EXTT6=
EXTT7=
EXTT8=
EXTT9=
EXTT10=
EXTT11=
EXTT12=
EXTT13=
EXTT14=
EXTT15=
EXTT16=
PLAYORDER=
